<?xml version="1.0" encoding="UTF-8" standalone="no"?>
<!DOCTYPE svg PUBLIC "-//W3C//DTD SVG 1.1//EN"
 "http://www.w3.org/Graphics/SVG/1.1/DTD/svg11.dtd">
<!-- Generated by graphviz version 2.44.1 (20200629.0846)
 -->
<!-- Title: dependencies Pages: 1 -->
<svg width="504pt" height="284pt"
 viewBox="0.00 0.00 504.00 284.00" xmlns="http://www.w3.org/2000/svg" xmlns:xlink="http://www.w3.org/1999/xlink">
<g id="graph0" class="graph" transform="scale(1 1) rotate(0) translate(4 280)">
<title>dependencies</title>
<polygon fill="white" stroke="transparent" points="-4,4 -4,-280 500,-280 500,4 -4,4"/>
<text text-anchor="start" x="227.01" y="-42.4" font-family="sans-serif" font-weight="bold" font-size="14.00">Legend</text>
<polygon fill="#ffffb3" stroke="transparent" points="14,-10 14,-30 34,-30 34,-10 14,-10"/>
<text text-anchor="start" x="37.63" y="-15.4" font-family="sans-serif" font-size="14.00"> &#160;Declarations</text>
<polygon fill="#8dd3c7" stroke="transparent" points="127,-10 127,-30 147,-30 147,-10 127,-10"/>
<text text-anchor="start" x="150.73" y="-15.4" font-family="sans-serif" font-size="14.00"> &#160;Module</text>
<polygon fill="#80b1d3" stroke="transparent" points="213,-10 213,-30 233,-30 233,-10 213,-10"/>
<text text-anchor="start" x="236.78" y="-15.4" font-family="sans-serif" font-size="14.00"> &#160;Bootstrap</text>
<polygon fill="#fdb462" stroke="transparent" points="310,-10 310,-30 330,-30 330,-10 310,-10"/>
<text text-anchor="start" x="333.67" y="-15.4" font-family="sans-serif" font-size="14.00"> &#160;Providers</text>
<polygon fill="#fb8072" stroke="transparent" points="406,-10 406,-30 426,-30 426,-10 406,-10"/>
<text text-anchor="start" x="429.73" y="-15.4" font-family="sans-serif" font-size="14.00"> &#160;Exports</text>
<g id="clust1" class="cluster">
<title>cluster_ZoneGridModule</title>
<polygon fill="none" stroke="black" stroke-dasharray="1,5" points="97,-70 97,-268 399,-268 399,-70 97,-70"/>
</g>
<g id="clust6" class="cluster">
<title>cluster_ZoneGridModule_exports</title>
<polygon fill="none" stroke="black" points="105,-208 105,-260 391,-260 391,-208 105,-208"/>
</g>
<g id="clust2" class="cluster">
<title>cluster_ZoneGridModule_declarations</title>
<polygon fill="none" stroke="black" points="109,-78 109,-130 387,-130 387,-78 109,-78"/>
</g>
<!-- VentComponent -->
<g id="node1" class="node">
<title>VentComponent</title>
<polygon fill="#ffffb3" stroke="black" points="379.05,-122 270.95,-122 270.95,-86 379.05,-86 379.05,-122"/>
<text text-anchor="middle" x="325" y="-99.8" font-family="Times,serif" font-size="14.00">VentComponent</text>
</g>
<!-- ZoneGridModule -->
<g id="node3" class="node">
<title>ZoneGridModule</title>
<polygon fill="#8dd3c7" stroke="black" points="242.97,-187 239.97,-191 218.97,-191 215.97,-187 129.03,-187 129.03,-151 242.97,-151 242.97,-187"/>
<text text-anchor="middle" x="186" y="-164.8" font-family="Times,serif" font-size="14.00">ZoneGridModule</text>
</g>
<!-- VentComponent&#45;&gt;ZoneGridModule -->
<g id="edge1" class="edge">
<title>VentComponent&#45;&gt;ZoneGridModule</title>
<path fill="none" stroke="black" d="M343.17,-122.02C343.17,-139.37 343.17,-163 343.17,-163 343.17,-163 253.19,-163 253.19,-163"/>
<polygon fill="black" stroke="black" points="253.19,-159.5 243.19,-163 253.19,-166.5 253.19,-159.5"/>
</g>
<!-- ZoneGridComponent -->
<g id="node2" class="node">
<title>ZoneGridComponent</title>
<polygon fill="#ffffb3" stroke="black" points="252.76,-122 117.24,-122 117.24,-86 252.76,-86 252.76,-122"/>
<text text-anchor="middle" x="185" y="-99.8" font-family="Times,serif" font-size="14.00">ZoneGridComponent</text>
</g>
<!-- ZoneGridComponent&#45;&gt;ZoneGridModule -->
<g id="edge2" class="edge">
<title>ZoneGridComponent&#45;&gt;ZoneGridModule</title>
<path fill="none" stroke="black" d="M186,-122.11C186,-122.11 186,-140.99 186,-140.99"/>
<polygon fill="black" stroke="black" points="182.5,-140.99 186,-150.99 189.5,-140.99 182.5,-140.99"/>
</g>
<!-- VentComponent  -->
<g id="node4" class="node">
<title>VentComponent </title>
<polygon fill="#fb8072" stroke="black" points="383.04,-252 270.96,-252 270.96,-216 383.04,-216 383.04,-252"/>
<text text-anchor="middle" x="327" y="-229.8" font-family="Times,serif" font-size="14.00">VentComponent </text>
</g>
<!-- ZoneGridModule&#45;&gt;VentComponent  -->
<g id="edge3" class="edge">
<title>ZoneGridModule&#45;&gt;VentComponent </title>
<path fill="none" stroke="black" stroke-dasharray="5,2" d="M242.99,-175C274.4,-175 307.08,-175 307.08,-175 307.08,-175 307.08,-205.98 307.08,-205.98"/>
<polygon fill="black" stroke="black" points="303.58,-205.98 307.08,-215.98 310.58,-205.98 303.58,-205.98"/>
</g>
<!-- ZoneGridComponent  -->
<g id="node5" class="node">
<title>ZoneGridComponent </title>
<polygon fill="#fb8072" stroke="black" points="252.76,-252 113.24,-252 113.24,-216 252.76,-216 252.76,-252"/>
<text text-anchor="middle" x="183" y="-229.8" font-family="Times,serif" font-size="14.00">ZoneGridComponent </text>
</g>
<!-- ZoneGridModule&#45;&gt;ZoneGridComponent  -->
<g id="edge4" class="edge">
<title>ZoneGridModule&#45;&gt;ZoneGridComponent </title>
<path fill="none" stroke="black" stroke-dasharray="5,2" d="M186,-187.11C186,-187.11 186,-205.99 186,-205.99"/>
<polygon fill="black" stroke="black" points="182.5,-205.99 186,-215.99 189.5,-205.99 182.5,-205.99"/>
</g>
</g>
</svg>
