<?xml version="1.0" encoding="UTF-8" standalone="no"?>
<!DOCTYPE svg PUBLIC "-//W3C//DTD SVG 1.1//EN"
 "http://www.w3.org/Graphics/SVG/1.1/DTD/svg11.dtd">
<!-- Generated by graphviz version 2.44.1 (20200629.0846)
 -->
<!-- Title: dependencies Pages: 1 -->
<svg width="1273pt" height="211pt"
 viewBox="0.00 0.00 1273.00 211.00" xmlns="http://www.w3.org/2000/svg" xmlns:xlink="http://www.w3.org/1999/xlink">
<g id="graph0" class="graph" transform="scale(1 1) rotate(0) translate(4 207)">
<title>dependencies</title>
<polygon fill="white" stroke="transparent" points="-4,4 -4,-207 1269,-207 1269,4 -4,4"/>
<text text-anchor="start" x="611.51" y="-42.4" font-family="sans-serif" font-weight="bold" font-size="14.00">Legend</text>
<polygon fill="#ffffb3" stroke="transparent" points="398.5,-10 398.5,-30 418.5,-30 418.5,-10 398.5,-10"/>
<text text-anchor="start" x="422.13" y="-15.4" font-family="sans-serif" font-size="14.00"> &#160;Declarations</text>
<polygon fill="#8dd3c7" stroke="transparent" points="511.5,-10 511.5,-30 531.5,-30 531.5,-10 511.5,-10"/>
<text text-anchor="start" x="535.23" y="-15.4" font-family="sans-serif" font-size="14.00"> &#160;Module</text>
<polygon fill="#80b1d3" stroke="transparent" points="597.5,-10 597.5,-30 617.5,-30 617.5,-10 597.5,-10"/>
<text text-anchor="start" x="621.28" y="-15.4" font-family="sans-serif" font-size="14.00"> &#160;Bootstrap</text>
<polygon fill="#fdb462" stroke="transparent" points="694.5,-10 694.5,-30 714.5,-30 714.5,-10 694.5,-10"/>
<text text-anchor="start" x="718.17" y="-15.4" font-family="sans-serif" font-size="14.00"> &#160;Providers</text>
<polygon fill="#fb8072" stroke="transparent" points="790.5,-10 790.5,-30 810.5,-30 810.5,-10 790.5,-10"/>
<text text-anchor="start" x="814.23" y="-15.4" font-family="sans-serif" font-size="14.00"> &#160;Exports</text>
<g id="clust1" class="cluster">
<title>cluster_DashboardModule</title>
<polygon fill="none" stroke="black" stroke-dasharray="1,5" points="8,-70 8,-195 1257,-195 1257,-70 8,-70"/>
</g>
<g id="clust4" class="cluster">
<title>cluster_DashboardModule_imports</title>
<polygon fill="none" stroke="black" points="182,-78 182,-130 1249,-130 1249,-78 182,-78"/>
</g>
<g id="clust2" class="cluster">
<title>cluster_DashboardModule_declarations</title>
<polygon fill="none" stroke="black" points="16,-78 16,-130 174,-130 174,-78 16,-78"/>
</g>
<!-- DashboardComponent -->
<g id="node1" class="node">
<title>DashboardComponent</title>
<polygon fill="#ffffb3" stroke="black" points="165.97,-122 24.03,-122 24.03,-86 165.97,-86 165.97,-122"/>
<text text-anchor="middle" x="95" y="-99.8" font-family="Times,serif" font-size="14.00">DashboardComponent</text>
</g>
<!-- DashboardModule -->
<g id="node2" class="node">
<title>DashboardModule</title>
<polygon fill="#8dd3c7" stroke="black" points="699.19,-187 696.19,-191 675.19,-191 672.19,-187 578.81,-187 578.81,-151 699.19,-151 699.19,-187"/>
<text text-anchor="middle" x="639" y="-164.8" font-family="Times,serif" font-size="14.00">DashboardModule</text>
</g>
<!-- DashboardComponent&#45;&gt;DashboardModule -->
<g id="edge1" class="edge">
<title>DashboardComponent&#45;&gt;DashboardModule</title>
<path fill="none" stroke="black" d="M95,-122.29C95,-144.21 95,-178 95,-178 95,-178 568.7,-178 568.7,-178"/>
<polygon fill="black" stroke="black" points="568.7,-181.5 578.7,-178 568.7,-174.5 568.7,-181.5"/>
</g>
<!-- ConfirmationModule -->
<g id="node3" class="node">
<title>ConfirmationModule</title>
<polygon fill="#8dd3c7" stroke="black" points="1241.48,-122 1238.48,-126 1217.48,-126 1214.48,-122 1106.52,-122 1106.52,-86 1241.48,-86 1241.48,-122"/>
<text text-anchor="middle" x="1174" y="-99.8" font-family="Times,serif" font-size="14.00">ConfirmationModule</text>
</g>
<!-- ConfirmationModule&#45;&gt;DashboardModule -->
<g id="edge2" class="edge">
<title>ConfirmationModule&#45;&gt;DashboardModule</title>
<path fill="none" stroke="black" d="M1174,-122.29C1174,-144.21 1174,-178 1174,-178 1174,-178 709.33,-178 709.33,-178"/>
<polygon fill="black" stroke="black" points="709.33,-174.5 699.33,-178 709.33,-181.5 709.33,-174.5"/>
</g>
<!-- HumidityModule -->
<g id="node4" class="node">
<title>HumidityModule</title>
<polygon fill="#8dd3c7" stroke="black" points="1088.72,-122 1085.72,-126 1064.72,-126 1061.72,-122 975.28,-122 975.28,-86 1088.72,-86 1088.72,-122"/>
<text text-anchor="middle" x="1032" y="-99.8" font-family="Times,serif" font-size="14.00">HumidityModule</text>
</g>
<!-- HumidityModule&#45;&gt;DashboardModule -->
<g id="edge3" class="edge">
<title>HumidityModule&#45;&gt;DashboardModule</title>
<path fill="none" stroke="black" d="M1032,-122.11C1032,-141.34 1032,-169 1032,-169 1032,-169 709.12,-169 709.12,-169"/>
<polygon fill="black" stroke="black" points="709.12,-165.5 699.12,-169 709.12,-172.5 709.12,-165.5"/>
</g>
<!-- ResultModule -->
<g id="node5" class="node">
<title>ResultModule</title>
<polygon fill="#8dd3c7" stroke="black" points="957.83,-122 954.83,-126 933.83,-126 930.83,-122 862.17,-122 862.17,-86 957.83,-86 957.83,-122"/>
<text text-anchor="middle" x="910" y="-99.8" font-family="Times,serif" font-size="14.00">ResultModule</text>
</g>
<!-- ResultModule&#45;&gt;DashboardModule -->
<g id="edge4" class="edge">
<title>ResultModule&#45;&gt;DashboardModule</title>
<path fill="none" stroke="black" d="M910,-122.03C910,-138.4 910,-160 910,-160 910,-160 709.14,-160 709.14,-160"/>
<polygon fill="black" stroke="black" points="709.14,-156.5 699.14,-160 709.14,-163.5 709.14,-156.5"/>
</g>
<!-- RoomFeelingsModule -->
<g id="node6" class="node">
<title>RoomFeelingsModule</title>
<polygon fill="#8dd3c7" stroke="black" points="844.71,-122 841.71,-126 820.71,-126 817.71,-122 703.29,-122 703.29,-86 844.71,-86 844.71,-122"/>
<text text-anchor="middle" x="774" y="-99.8" font-family="Times,serif" font-size="14.00">RoomFeelingsModule</text>
</g>
<!-- RoomFeelingsModule&#45;&gt;DashboardModule -->
<g id="edge5" class="edge">
<title>RoomFeelingsModule&#45;&gt;DashboardModule</title>
<path fill="none" stroke="black" d="M703.15,-104C696.67,-104 692.49,-104 692.49,-104 692.49,-104 692.49,-140.89 692.49,-140.89"/>
<polygon fill="black" stroke="black" points="688.99,-140.89 692.49,-150.89 695.99,-140.89 688.99,-140.89"/>
</g>
<!-- StatusModule -->
<g id="node7" class="node">
<title>StatusModule</title>
<polygon fill="#8dd3c7" stroke="black" points="685.77,-122 682.77,-126 661.77,-126 658.77,-122 592.23,-122 592.23,-86 685.77,-86 685.77,-122"/>
<text text-anchor="middle" x="639" y="-99.8" font-family="Times,serif" font-size="14.00">StatusModule</text>
</g>
<!-- StatusModule&#45;&gt;DashboardModule -->
<g id="edge6" class="edge">
<title>StatusModule&#45;&gt;DashboardModule</title>
<path fill="none" stroke="black" d="M639,-122.11C639,-122.11 639,-140.99 639,-140.99"/>
<polygon fill="black" stroke="black" points="635.5,-140.99 639,-150.99 642.5,-140.99 635.5,-140.99"/>
</g>
<!-- TemperatureModule -->
<g id="node8" class="node">
<title>TemperatureModule</title>
<polygon fill="#8dd3c7" stroke="black" points="574.56,-122 571.56,-126 550.56,-126 547.56,-122 443.44,-122 443.44,-86 574.56,-86 574.56,-122"/>
<text text-anchor="middle" x="509" y="-99.8" font-family="Times,serif" font-size="14.00">TemperatureModule</text>
</g>
<!-- TemperatureModule&#45;&gt;DashboardModule -->
<g id="edge7" class="edge">
<title>TemperatureModule&#45;&gt;DashboardModule</title>
<path fill="none" stroke="black" d="M574.55,-104C581.17,-104 585.51,-104 585.51,-104 585.51,-104 585.51,-140.89 585.51,-140.89"/>
<polygon fill="black" stroke="black" points="582.01,-140.89 585.51,-150.89 589.01,-140.89 582.01,-140.89"/>
</g>
<!-- VotingModule -->
<g id="node9" class="node">
<title>VotingModule</title>
<polygon fill="#8dd3c7" stroke="black" points="425.44,-122 422.44,-126 401.44,-126 398.44,-122 326.56,-122 326.56,-86 425.44,-86 425.44,-122"/>
<text text-anchor="middle" x="376" y="-99.8" font-family="Times,serif" font-size="14.00">VotingModule</text>
</g>
<!-- VotingModule&#45;&gt;DashboardModule -->
<g id="edge8" class="edge">
<title>VotingModule&#45;&gt;DashboardModule</title>
<path fill="none" stroke="black" d="M376,-122.03C376,-138.4 376,-160 376,-160 376,-160 568.66,-160 568.66,-160"/>
<polygon fill="black" stroke="black" points="568.66,-163.5 578.66,-160 568.66,-156.5 568.66,-163.5"/>
</g>
<!-- ZoneViewModule -->
<g id="node10" class="node">
<title>ZoneViewModule</title>
<polygon fill="#8dd3c7" stroke="black" points="308.14,-122 305.14,-126 284.14,-126 281.14,-122 189.86,-122 189.86,-86 308.14,-86 308.14,-122"/>
<text text-anchor="middle" x="249" y="-99.8" font-family="Times,serif" font-size="14.00">ZoneViewModule</text>
</g>
<!-- ZoneViewModule&#45;&gt;DashboardModule -->
<g id="edge9" class="edge">
<title>ZoneViewModule&#45;&gt;DashboardModule</title>
<path fill="none" stroke="black" d="M249,-122.11C249,-141.34 249,-169 249,-169 249,-169 568.49,-169 568.49,-169"/>
<polygon fill="black" stroke="black" points="568.49,-172.5 578.49,-169 568.49,-165.5 568.49,-172.5"/>
</g>
</g>
</svg>
