<?xml version="1.0" encoding="UTF-8" standalone="no"?>
<!DOCTYPE svg PUBLIC "-//W3C//DTD SVG 1.1//EN"
 "http://www.w3.org/Graphics/SVG/1.1/DTD/svg11.dtd">
<!-- Generated by graphviz version 2.44.1 (20200629.0846)
 -->
<!-- Title: dependencies Pages: 1 -->
<svg width="541pt" height="284pt"
 viewBox="0.00 0.00 541.00 284.00" xmlns="http://www.w3.org/2000/svg" xmlns:xlink="http://www.w3.org/1999/xlink">
<g id="graph0" class="graph" transform="scale(1 1) rotate(0) translate(4 280)">
<title>dependencies</title>
<polygon fill="white" stroke="transparent" points="-4,4 -4,-280 537,-280 537,4 -4,4"/>
<text text-anchor="start" x="245.51" y="-42.4" font-family="sans-serif" font-weight="bold" font-size="14.00">Legend</text>
<polygon fill="#ffffb3" stroke="transparent" points="32.5,-10 32.5,-30 52.5,-30 52.5,-10 32.5,-10"/>
<text text-anchor="start" x="56.13" y="-15.4" font-family="sans-serif" font-size="14.00"> &#160;Declarations</text>
<polygon fill="#8dd3c7" stroke="transparent" points="145.5,-10 145.5,-30 165.5,-30 165.5,-10 145.5,-10"/>
<text text-anchor="start" x="169.23" y="-15.4" font-family="sans-serif" font-size="14.00"> &#160;Module</text>
<polygon fill="#80b1d3" stroke="transparent" points="231.5,-10 231.5,-30 251.5,-30 251.5,-10 231.5,-10"/>
<text text-anchor="start" x="255.28" y="-15.4" font-family="sans-serif" font-size="14.00"> &#160;Bootstrap</text>
<polygon fill="#fdb462" stroke="transparent" points="328.5,-10 328.5,-30 348.5,-30 348.5,-10 328.5,-10"/>
<text text-anchor="start" x="352.17" y="-15.4" font-family="sans-serif" font-size="14.00"> &#160;Providers</text>
<polygon fill="#fb8072" stroke="transparent" points="424.5,-10 424.5,-30 444.5,-30 444.5,-10 424.5,-10"/>
<text text-anchor="start" x="448.23" y="-15.4" font-family="sans-serif" font-size="14.00"> &#160;Exports</text>
<g id="clust1" class="cluster">
<title>cluster_GameModule</title>
<polygon fill="none" stroke="black" stroke-dasharray="1,5" points="8,-70 8,-268 525,-268 525,-70 8,-70"/>
</g>
<g id="clust2" class="cluster">
<title>cluster_GameModule_declarations</title>
<polygon fill="none" stroke="black" points="166,-78 166,-130 517,-130 517,-78 166,-78"/>
</g>
<g id="clust5" class="cluster">
<title>cluster_GameModule_imports</title>
<polygon fill="none" stroke="black" points="16,-78 16,-130 158,-130 158,-78 16,-78"/>
</g>
<g id="clust6" class="cluster">
<title>cluster_GameModule_exports</title>
<polygon fill="none" stroke="black" points="88,-208 88,-260 445,-260 445,-208 88,-208"/>
</g>
<!-- GameDashboardComponent -->
<g id="node1" class="node">
<title>GameDashboardComponent</title>
<polygon fill="#ffffb3" stroke="black" points="508.9,-122 333.1,-122 333.1,-86 508.9,-86 508.9,-122"/>
<text text-anchor="middle" x="421" y="-99.8" font-family="Times,serif" font-size="14.00">GameDashboardComponent</text>
</g>
<!-- GameModule -->
<g id="node3" class="node">
<title>GameModule</title>
<polygon fill="#8dd3c7" stroke="black" points="291.48,-187 288.48,-191 267.48,-191 264.48,-187 198.52,-187 198.52,-151 291.48,-151 291.48,-187"/>
<text text-anchor="middle" x="245" y="-164.8" font-family="Times,serif" font-size="14.00">GameModule</text>
</g>
<!-- GameDashboardComponent&#45;&gt;GameModule -->
<g id="edge1" class="edge">
<title>GameDashboardComponent&#45;&gt;GameModule</title>
<path fill="none" stroke="black" d="M385.38,-122.11C385.38,-141.34 385.38,-169 385.38,-169 385.38,-169 301.74,-169 301.74,-169"/>
<polygon fill="black" stroke="black" points="301.74,-165.5 291.74,-169 301.74,-172.5 301.74,-165.5"/>
</g>
<!-- GameStartComponent -->
<g id="node2" class="node">
<title>GameStartComponent</title>
<polygon fill="#ffffb3" stroke="black" points="315.7,-122 174.3,-122 174.3,-86 315.7,-86 315.7,-122"/>
<text text-anchor="middle" x="245" y="-99.8" font-family="Times,serif" font-size="14.00">GameStartComponent</text>
</g>
<!-- GameStartComponent&#45;&gt;GameModule -->
<g id="edge2" class="edge">
<title>GameStartComponent&#45;&gt;GameModule</title>
<path fill="none" stroke="black" d="M245,-122.11C245,-122.11 245,-140.99 245,-140.99"/>
<polygon fill="black" stroke="black" points="241.5,-140.99 245,-150.99 248.5,-140.99 241.5,-140.99"/>
</g>
<!-- GameDashboardComponent  -->
<g id="node5" class="node">
<title>GameDashboardComponent </title>
<polygon fill="#fb8072" stroke="black" points="437.4,-252 258.6,-252 258.6,-216 437.4,-216 437.4,-252"/>
<text text-anchor="middle" x="348" y="-229.8" font-family="Times,serif" font-size="14.00">GameDashboardComponent </text>
</g>
<!-- GameModule&#45;&gt;GameDashboardComponent  -->
<g id="edge4" class="edge">
<title>GameModule&#45;&gt;GameDashboardComponent </title>
<path fill="none" stroke="black" stroke-dasharray="5,2" d="M275.02,-187.11C275.02,-187.11 275.02,-205.99 275.02,-205.99"/>
<polygon fill="black" stroke="black" points="271.52,-205.99 275.02,-215.99 278.52,-205.99 271.52,-205.99"/>
</g>
<!-- GameStartComponent  -->
<g id="node6" class="node">
<title>GameStartComponent </title>
<polygon fill="#fb8072" stroke="black" points="240.2,-252 95.8,-252 95.8,-216 240.2,-216 240.2,-252"/>
<text text-anchor="middle" x="168" y="-229.8" font-family="Times,serif" font-size="14.00">GameStartComponent </text>
</g>
<!-- GameModule&#45;&gt;GameStartComponent  -->
<g id="edge5" class="edge">
<title>GameModule&#45;&gt;GameStartComponent </title>
<path fill="none" stroke="black" stroke-dasharray="5,2" d="M219.43,-187.11C219.43,-187.11 219.43,-205.99 219.43,-205.99"/>
<polygon fill="black" stroke="black" points="215.93,-205.99 219.43,-215.99 222.93,-205.99 215.93,-205.99"/>
</g>
<!-- GameSliderModule -->
<g id="node4" class="node">
<title>GameSliderModule</title>
<polygon fill="#8dd3c7" stroke="black" points="150.42,-122 147.42,-126 126.42,-126 123.42,-122 23.58,-122 23.58,-86 150.42,-86 150.42,-122"/>
<text text-anchor="middle" x="87" y="-99.8" font-family="Times,serif" font-size="14.00">GameSliderModule</text>
</g>
<!-- GameSliderModule&#45;&gt;GameModule -->
<g id="edge3" class="edge">
<title>GameSliderModule&#45;&gt;GameModule</title>
<path fill="none" stroke="black" d="M122.93,-122.11C122.93,-141.34 122.93,-169 122.93,-169 122.93,-169 188.5,-169 188.5,-169"/>
<polygon fill="black" stroke="black" points="188.5,-172.5 198.5,-169 188.5,-165.5 188.5,-172.5"/>
</g>
</g>
</svg>
