<?xml version="1.0" encoding="UTF-8" standalone="no"?>
<!DOCTYPE svg PUBLIC "-//W3C//DTD SVG 1.1//EN"
 "http://www.w3.org/Graphics/SVG/1.1/DTD/svg11.dtd">
<!-- Generated by graphviz version 2.44.1 (20200629.0846)
 -->
<!-- Title: dependencies Pages: 1 -->
<svg width="777pt" height="284pt"
 viewBox="0.00 0.00 777.00 284.00" xmlns="http://www.w3.org/2000/svg" xmlns:xlink="http://www.w3.org/1999/xlink">
<g id="graph0" class="graph" transform="scale(1 1) rotate(0) translate(4 280)">
<title>dependencies</title>
<polygon fill="white" stroke="transparent" points="-4,4 -4,-280 773,-280 773,4 -4,4"/>
<text text-anchor="start" x="363.51" y="-42.4" font-family="sans-serif" font-weight="bold" font-size="14.00">Legend</text>
<polygon fill="#ffffb3" stroke="transparent" points="150.5,-10 150.5,-30 170.5,-30 170.5,-10 150.5,-10"/>
<text text-anchor="start" x="174.13" y="-15.4" font-family="sans-serif" font-size="14.00"> &#160;Declarations</text>
<polygon fill="#8dd3c7" stroke="transparent" points="263.5,-10 263.5,-30 283.5,-30 283.5,-10 263.5,-10"/>
<text text-anchor="start" x="287.23" y="-15.4" font-family="sans-serif" font-size="14.00"> &#160;Module</text>
<polygon fill="#80b1d3" stroke="transparent" points="349.5,-10 349.5,-30 369.5,-30 369.5,-10 349.5,-10"/>
<text text-anchor="start" x="373.28" y="-15.4" font-family="sans-serif" font-size="14.00"> &#160;Bootstrap</text>
<polygon fill="#fdb462" stroke="transparent" points="446.5,-10 446.5,-30 466.5,-30 466.5,-10 446.5,-10"/>
<text text-anchor="start" x="470.17" y="-15.4" font-family="sans-serif" font-size="14.00"> &#160;Providers</text>
<polygon fill="#fb8072" stroke="transparent" points="542.5,-10 542.5,-30 562.5,-30 562.5,-10 542.5,-10"/>
<text text-anchor="start" x="566.23" y="-15.4" font-family="sans-serif" font-size="14.00"> &#160;Exports</text>
<g id="clust1" class="cluster">
<title>cluster_ZoneViewModule</title>
<polygon fill="none" stroke="black" stroke-dasharray="1,5" points="8,-70 8,-268 761,-268 761,-70 8,-70"/>
</g>
<g id="clust5" class="cluster">
<title>cluster_ZoneViewModule_exports</title>
<polygon fill="none" stroke="black" points="309,-208 309,-260 469,-260 469,-208 309,-208"/>
</g>
<g id="clust7" class="cluster">
<title>cluster_ZoneViewModule_providers</title>
<polygon fill="none" stroke="black" points="318,-78 318,-130 753,-130 753,-78 318,-78"/>
</g>
<g id="clust4" class="cluster">
<title>cluster_ZoneViewModule_imports</title>
<polygon fill="none" stroke="black" points="180,-78 180,-130 310,-130 310,-78 180,-78"/>
</g>
<g id="clust2" class="cluster">
<title>cluster_ZoneViewModule_declarations</title>
<polygon fill="none" stroke="black" points="16,-78 16,-130 172,-130 172,-78 16,-78"/>
</g>
<!-- ZoneViewComponent -->
<g id="node1" class="node">
<title>ZoneViewComponent</title>
<polygon fill="#ffffb3" stroke="black" points="164.42,-122 23.58,-122 23.58,-86 164.42,-86 164.42,-122"/>
<text text-anchor="middle" x="94" y="-99.8" font-family="Times,serif" font-size="14.00">ZoneViewComponent</text>
</g>
<!-- ZoneViewModule -->
<g id="node2" class="node">
<title>ZoneViewModule</title>
<polygon fill="#8dd3c7" stroke="black" points="448.14,-187 445.14,-191 424.14,-191 421.14,-187 329.86,-187 329.86,-151 448.14,-151 448.14,-187"/>
<text text-anchor="middle" x="389" y="-164.8" font-family="Times,serif" font-size="14.00">ZoneViewModule</text>
</g>
<!-- ZoneViewComponent&#45;&gt;ZoneViewModule -->
<g id="edge1" class="edge">
<title>ZoneViewComponent&#45;&gt;ZoneViewModule</title>
<path fill="none" stroke="black" d="M94,-122.28C94,-143.32 94,-175 94,-175 94,-175 319.66,-175 319.66,-175"/>
<polygon fill="black" stroke="black" points="319.66,-178.5 329.66,-175 319.66,-171.5 319.66,-178.5"/>
</g>
<!-- ZoneViewComponent  -->
<g id="node4" class="node">
<title>ZoneViewComponent </title>
<polygon fill="#fb8072" stroke="black" points="460.92,-252 317.08,-252 317.08,-216 460.92,-216 460.92,-252"/>
<text text-anchor="middle" x="389" y="-229.8" font-family="Times,serif" font-size="14.00">ZoneViewComponent </text>
</g>
<!-- ZoneViewModule&#45;&gt;ZoneViewComponent  -->
<g id="edge3" class="edge">
<title>ZoneViewModule&#45;&gt;ZoneViewComponent </title>
<path fill="none" stroke="black" stroke-dasharray="5,2" d="M389,-187.11C389,-187.11 389,-205.99 389,-205.99"/>
<polygon fill="black" stroke="black" points="385.5,-205.99 389,-215.99 392.5,-205.99 385.5,-205.99"/>
</g>
<!-- ZoneGridModule -->
<g id="node3" class="node">
<title>ZoneGridModule</title>
<polygon fill="#8dd3c7" stroke="black" points="301.97,-122 298.97,-126 277.97,-126 274.97,-122 188.03,-122 188.03,-86 301.97,-86 301.97,-122"/>
<text text-anchor="middle" x="245" y="-99.8" font-family="Times,serif" font-size="14.00">ZoneGridModule</text>
</g>
<!-- ZoneGridModule&#45;&gt;ZoneViewModule -->
<g id="edge2" class="edge">
<title>ZoneGridModule&#45;&gt;ZoneViewModule</title>
<path fill="none" stroke="black" d="M245,-122.02C245,-139.37 245,-163 245,-163 245,-163 319.6,-163 319.6,-163"/>
<polygon fill="black" stroke="black" points="319.6,-166.5 329.6,-163 319.6,-159.5 319.6,-166.5"/>
</g>
<!-- RoomsService -->
<g id="node5" class="node">
<title>RoomsService</title>
<ellipse fill="#fdb462" stroke="black" cx="678" cy="-104" rx="67.21" ry="18"/>
<text text-anchor="middle" x="678" y="-99.8" font-family="Times,serif" font-size="14.00">RoomsService</text>
</g>
<!-- RoomsService&#45;&gt;ZoneViewModule -->
<g id="edge4" class="edge">
<title>RoomsService&#45;&gt;ZoneViewModule</title>
<path fill="none" stroke="black" d="M678,-122.28C678,-143.32 678,-175 678,-175 678,-175 458.18,-175 458.18,-175"/>
<polygon fill="black" stroke="black" points="458.18,-171.5 448.18,-175 458.18,-178.5 458.18,-171.5"/>
</g>
<!-- UsersService -->
<g id="node6" class="node">
<title>UsersService</title>
<ellipse fill="#fdb462" stroke="black" cx="531" cy="-104" rx="61.95" ry="18"/>
<text text-anchor="middle" x="531" y="-99.8" font-family="Times,serif" font-size="14.00">UsersService</text>
</g>
<!-- UsersService&#45;&gt;ZoneViewModule -->
<g id="edge5" class="edge">
<title>UsersService&#45;&gt;ZoneViewModule</title>
<path fill="none" stroke="black" d="M531,-122.02C531,-139.37 531,-163 531,-163 531,-163 458.4,-163 458.4,-163"/>
<polygon fill="black" stroke="black" points="458.4,-159.5 448.4,-163 458.4,-166.5 458.4,-159.5"/>
</g>
<!-- VentsService -->
<g id="node7" class="node">
<title>VentsService</title>
<ellipse fill="#fdb462" stroke="black" cx="389" cy="-104" rx="62.54" ry="18"/>
<text text-anchor="middle" x="389" y="-99.8" font-family="Times,serif" font-size="14.00">VentsService</text>
</g>
<!-- VentsService&#45;&gt;ZoneViewModule -->
<g id="edge6" class="edge">
<title>VentsService&#45;&gt;ZoneViewModule</title>
<path fill="none" stroke="black" d="M389,-122.11C389,-122.11 389,-140.99 389,-140.99"/>
<polygon fill="black" stroke="black" points="385.5,-140.99 389,-150.99 392.5,-140.99 385.5,-140.99"/>
</g>
</g>
</svg>
