<?xml version="1.0" encoding="UTF-8" standalone="no"?>
<!DOCTYPE svg PUBLIC "-//W3C//DTD SVG 1.1//EN"
 "http://www.w3.org/Graphics/SVG/1.1/DTD/svg11.dtd">
<!-- Generated by graphviz version 2.44.1 (20200629.0846)
 -->
<!-- Title: dependencies Pages: 1 -->
<svg width="504pt" height="276pt"
 viewBox="0.00 0.00 504.00 276.00" xmlns="http://www.w3.org/2000/svg" xmlns:xlink="http://www.w3.org/1999/xlink">
<g id="graph0" class="graph" transform="scale(1 1) rotate(0) translate(4 272)">
<title>dependencies</title>
<polygon fill="white" stroke="transparent" points="-4,4 -4,-272 500,-272 500,4 -4,4"/>
<text text-anchor="start" x="227.01" y="-42.4" font-family="sans-serif" font-weight="bold" font-size="14.00">Legend</text>
<polygon fill="#ffffb3" stroke="transparent" points="14,-10 14,-30 34,-30 34,-10 14,-10"/>
<text text-anchor="start" x="37.63" y="-15.4" font-family="sans-serif" font-size="14.00"> &#160;Declarations</text>
<polygon fill="#8dd3c7" stroke="transparent" points="127,-10 127,-30 147,-30 147,-10 127,-10"/>
<text text-anchor="start" x="150.73" y="-15.4" font-family="sans-serif" font-size="14.00"> &#160;Module</text>
<polygon fill="#80b1d3" stroke="transparent" points="213,-10 213,-30 233,-30 233,-10 213,-10"/>
<text text-anchor="start" x="236.78" y="-15.4" font-family="sans-serif" font-size="14.00"> &#160;Bootstrap</text>
<polygon fill="#fdb462" stroke="transparent" points="310,-10 310,-30 330,-30 330,-10 310,-10"/>
<text text-anchor="start" x="333.67" y="-15.4" font-family="sans-serif" font-size="14.00"> &#160;Providers</text>
<polygon fill="#fb8072" stroke="transparent" points="406,-10 406,-30 426,-30 426,-10 406,-10"/>
<text text-anchor="start" x="429.73" y="-15.4" font-family="sans-serif" font-size="14.00"> &#160;Exports</text>
<g id="clust1" class="cluster">
<title>cluster_ConfirmationModule</title>
<polygon fill="none" stroke="black" stroke-dasharray="1,5" points="89,-70 89,-260 407,-260 407,-70 89,-70"/>
</g>
<g id="clust2" class="cluster">
<title>cluster_ConfirmationModule_declarations</title>
<polygon fill="none" stroke="black" points="227,-143 227,-195 399,-195 399,-143 227,-143"/>
</g>
<g id="clust3" class="cluster">
<title>cluster_ConfirmationModule_ConfirmationComponent_providers</title>
<polygon fill="none" stroke="black" points="181,-78 181,-130 399,-130 399,-78 181,-78"/>
</g>
<g id="clust4" class="cluster">
<title>cluster_ConfirmationModule_imports</title>
<polygon fill="none" stroke="black" points="97,-143 97,-195 219,-195 219,-143 97,-143"/>
</g>
<!-- ConfirmationComponent -->
<g id="node1" class="node">
<title>ConfirmationComponent</title>
<polygon fill="#ffffb3" stroke="black" points="391.27,-187 234.73,-187 234.73,-151 391.27,-151 391.27,-187"/>
<text text-anchor="middle" x="313" y="-164.8" font-family="Times,serif" font-size="14.00">ConfirmationComponent</text>
</g>
<!-- ConfirmationModule -->
<g id="node2" class="node">
<title>ConfirmationModule</title>
<polygon fill="#8dd3c7" stroke="black" points="305.48,-252 302.48,-256 281.48,-256 278.48,-252 170.52,-252 170.52,-216 305.48,-216 305.48,-252"/>
<text text-anchor="middle" x="238" y="-229.8" font-family="Times,serif" font-size="14.00">ConfirmationModule</text>
</g>
<!-- ConfirmationComponent&#45;&gt;ConfirmationModule -->
<g id="edge1" class="edge">
<title>ConfirmationComponent&#45;&gt;ConfirmationModule</title>
<path fill="none" stroke="black" d="M270.05,-187.11C270.05,-187.11 270.05,-205.99 270.05,-205.99"/>
<polygon fill="black" stroke="black" points="266.55,-205.99 270.05,-215.99 273.55,-205.99 266.55,-205.99"/>
</g>
<!-- ChangeRequestService -->
<g id="node3" class="node">
<title>ChangeRequestService</title>
<ellipse fill="#fdb462" stroke="black" cx="290" cy="-104" rx="100.7" ry="18"/>
<text text-anchor="middle" x="290" y="-99.8" font-family="Times,serif" font-size="14.00">ChangeRequestService</text>
</g>
<!-- ChangeRequestService&#45;&gt;ConfirmationComponent -->
<g id="edge2" class="edge">
<title>ChangeRequestService&#45;&gt;ConfirmationComponent</title>
<path fill="none" stroke="black" d="M312.61,-121.76C312.61,-121.76 312.61,-140.81 312.61,-140.81"/>
<polygon fill="black" stroke="black" points="309.11,-140.81 312.61,-150.81 316.11,-140.81 309.11,-140.81"/>
</g>
<!-- GoBackModule -->
<g id="node4" class="node">
<title>GoBackModule</title>
<polygon fill="#8dd3c7" stroke="black" points="210.92,-187 207.92,-191 186.92,-191 183.92,-187 105.08,-187 105.08,-151 210.92,-151 210.92,-187"/>
<text text-anchor="middle" x="158" y="-164.8" font-family="Times,serif" font-size="14.00">GoBackModule</text>
</g>
<!-- GoBackModule&#45;&gt;ConfirmationModule -->
<g id="edge3" class="edge">
<title>GoBackModule&#45;&gt;ConfirmationModule</title>
<path fill="none" stroke="black" d="M190.61,-187.11C190.61,-187.11 190.61,-205.99 190.61,-205.99"/>
<polygon fill="black" stroke="black" points="187.11,-205.99 190.61,-215.99 194.11,-205.99 187.11,-205.99"/>
</g>
</g>
</svg>
