<?xml version="1.0" encoding="UTF-8" standalone="no"?>
<!DOCTYPE svg PUBLIC "-//W3C//DTD SVG 1.1//EN"
 "http://www.w3.org/Graphics/SVG/1.1/DTD/svg11.dtd">
<!-- Generated by graphviz version 2.44.1 (20200629.0846)
 -->
<!-- Title: dependencies Pages: 1 -->
<svg width="504pt" height="211pt"
 viewBox="0.00 0.00 504.00 211.00" xmlns="http://www.w3.org/2000/svg" xmlns:xlink="http://www.w3.org/1999/xlink">
<g id="graph0" class="graph" transform="scale(1 1) rotate(0) translate(4 207)">
<title>dependencies</title>
<polygon fill="white" stroke="transparent" points="-4,4 -4,-207 500,-207 500,4 -4,4"/>
<text text-anchor="start" x="227.01" y="-42.4" font-family="sans-serif" font-weight="bold" font-size="14.00">Legend</text>
<polygon fill="#ffffb3" stroke="transparent" points="14,-10 14,-30 34,-30 34,-10 14,-10"/>
<text text-anchor="start" x="37.63" y="-15.4" font-family="sans-serif" font-size="14.00"> &#160;Declarations</text>
<polygon fill="#8dd3c7" stroke="transparent" points="127,-10 127,-30 147,-30 147,-10 127,-10"/>
<text text-anchor="start" x="150.73" y="-15.4" font-family="sans-serif" font-size="14.00"> &#160;Module</text>
<polygon fill="#80b1d3" stroke="transparent" points="213,-10 213,-30 233,-30 233,-10 213,-10"/>
<text text-anchor="start" x="236.78" y="-15.4" font-family="sans-serif" font-size="14.00"> &#160;Bootstrap</text>
<polygon fill="#fdb462" stroke="transparent" points="310,-10 310,-30 330,-30 330,-10 310,-10"/>
<text text-anchor="start" x="333.67" y="-15.4" font-family="sans-serif" font-size="14.00"> &#160;Providers</text>
<polygon fill="#fb8072" stroke="transparent" points="406,-10 406,-30 426,-30 426,-10 406,-10"/>
<text text-anchor="start" x="429.73" y="-15.4" font-family="sans-serif" font-size="14.00"> &#160;Exports</text>
<g id="clust1" class="cluster">
<title>cluster_TemperatureModule</title>
<polygon fill="none" stroke="black" stroke-dasharray="1,5" points="91,-70 91,-195 405,-195 405,-70 91,-70"/>
</g>
<g id="clust4" class="cluster">
<title>cluster_TemperatureModule_imports</title>
<polygon fill="none" stroke="black" points="275,-78 275,-130 397,-130 397,-78 275,-78"/>
</g>
<g id="clust2" class="cluster">
<title>cluster_TemperatureModule_declarations</title>
<polygon fill="none" stroke="black" points="99,-78 99,-130 267,-130 267,-78 99,-78"/>
</g>
<!-- TemperatureComponent -->
<g id="node1" class="node">
<title>TemperatureComponent</title>
<polygon fill="#ffffb3" stroke="black" points="259.35,-122 106.65,-122 106.65,-86 259.35,-86 259.35,-122"/>
<text text-anchor="middle" x="183" y="-99.8" font-family="Times,serif" font-size="14.00">TemperatureComponent</text>
</g>
<!-- TemperatureModule -->
<g id="node2" class="node">
<title>TemperatureModule</title>
<polygon fill="#8dd3c7" stroke="black" points="322.56,-187 319.56,-191 298.56,-191 295.56,-187 191.44,-187 191.44,-151 322.56,-151 322.56,-187"/>
<text text-anchor="middle" x="257" y="-164.8" font-family="Times,serif" font-size="14.00">TemperatureModule</text>
</g>
<!-- TemperatureComponent&#45;&gt;TemperatureModule -->
<g id="edge1" class="edge">
<title>TemperatureComponent&#45;&gt;TemperatureModule</title>
<path fill="none" stroke="black" d="M225.45,-122.11C225.45,-122.11 225.45,-140.99 225.45,-140.99"/>
<polygon fill="black" stroke="black" points="221.95,-140.99 225.45,-150.99 228.95,-140.99 221.95,-140.99"/>
</g>
<!-- GoBackModule -->
<g id="node3" class="node">
<title>GoBackModule</title>
<polygon fill="#8dd3c7" stroke="black" points="388.92,-122 385.92,-126 364.92,-126 361.92,-122 283.08,-122 283.08,-86 388.92,-86 388.92,-122"/>
<text text-anchor="middle" x="336" y="-99.8" font-family="Times,serif" font-size="14.00">GoBackModule</text>
</g>
<!-- GoBackModule&#45;&gt;TemperatureModule -->
<g id="edge2" class="edge">
<title>GoBackModule&#45;&gt;TemperatureModule</title>
<path fill="none" stroke="black" d="M302.91,-122.11C302.91,-122.11 302.91,-140.99 302.91,-140.99"/>
<polygon fill="black" stroke="black" points="299.41,-140.99 302.91,-150.99 306.41,-140.99 299.41,-140.99"/>
</g>
</g>
</svg>
