<?xml version="1.0" encoding="UTF-8" standalone="no"?>
<!DOCTYPE svg PUBLIC "-//W3C//DTD SVG 1.1//EN"
 "http://www.w3.org/Graphics/SVG/1.1/DTD/svg11.dtd">
<!-- Generated by graphviz version 2.44.1 (20200629.0846)
 -->
<!-- Title: dependencies Pages: 1 -->
<svg width="3022pt" height="504pt"
 viewBox="0.00 0.00 3022.00 504.00" xmlns="http://www.w3.org/2000/svg" xmlns:xlink="http://www.w3.org/1999/xlink">
<g id="graph0" class="graph" transform="scale(1 1) rotate(0) translate(4 500)">
<title>dependencies</title>
<polygon fill="white" stroke="transparent" points="-4,4 -4,-500 3018,-500 3018,4 -4,4"/>
<text text-anchor="start" x="1486.01" y="-42.4" font-family="sans-serif" font-weight="bold" font-size="14.00">Legend</text>
<polygon fill="#ffffb3" stroke="transparent" points="1273,-10 1273,-30 1293,-30 1293,-10 1273,-10"/>
<text text-anchor="start" x="1296.63" y="-15.4" font-family="sans-serif" font-size="14.00"> &#160;Declarations</text>
<polygon fill="#8dd3c7" stroke="transparent" points="1386,-10 1386,-30 1406,-30 1406,-10 1386,-10"/>
<text text-anchor="start" x="1409.73" y="-15.4" font-family="sans-serif" font-size="14.00"> &#160;Module</text>
<polygon fill="#80b1d3" stroke="transparent" points="1472,-10 1472,-30 1492,-30 1492,-10 1472,-10"/>
<text text-anchor="start" x="1495.78" y="-15.4" font-family="sans-serif" font-size="14.00"> &#160;Bootstrap</text>
<polygon fill="#fdb462" stroke="transparent" points="1569,-10 1569,-30 1589,-30 1589,-10 1569,-10"/>
<text text-anchor="start" x="1592.67" y="-15.4" font-family="sans-serif" font-size="14.00"> &#160;Providers</text>
<polygon fill="#fb8072" stroke="transparent" points="1665,-10 1665,-30 1685,-30 1685,-10 1665,-10"/>
<text text-anchor="start" x="1688.73" y="-15.4" font-family="sans-serif" font-size="14.00"> &#160;Exports</text>
<g id="clust1" class="cluster">
<title>cluster_AppModule</title>
<polygon fill="none" stroke="black" stroke-dasharray="1,5" points="804,-290 804,-488 1625,-488 1625,-290 804,-290"/>
</g>
<g id="clust2" class="cluster">
<title>cluster_AppModule_declarations</title>
<polygon fill="none" stroke="black" points="1363,-298 1363,-350 1617,-350 1617,-298 1363,-298"/>
</g>
<g id="clust5" class="cluster">
<title>cluster_AppModule_imports</title>
<polygon fill="none" stroke="black" points="962,-298 962,-350 1355,-350 1355,-298 962,-298"/>
</g>
<g id="clust7" class="cluster">
<title>cluster_AppModule_bootstrap</title>
<polygon fill="none" stroke="black" points="1176,-428 1176,-480 1300,-480 1300,-428 1176,-428"/>
</g>
<g id="clust8" class="cluster">
<title>cluster_AppModule_providers</title>
<polygon fill="none" stroke="black" points="812,-298 812,-350 954,-350 954,-298 812,-298"/>
</g>
<g id="clust15" class="cluster">
<title>cluster_ConfirmationModule</title>
<polygon fill="none" stroke="black" stroke-dasharray="1,5" points="8,-70 8,-274 326,-274 326,-70 8,-70"/>
</g>
<g id="clust16" class="cluster">
<title>cluster_ConfirmationModule_declarations</title>
<polygon fill="none" stroke="black" points="16,-146 16,-198 188,-198 188,-146 16,-146"/>
</g>
<g id="clust17" class="cluster">
<title>cluster_ConfirmationModule_ConfirmationComponent_providers</title>
<polygon fill="none" stroke="black" points="16,-78 16,-130 234,-130 234,-78 16,-78"/>
</g>
<g id="clust18" class="cluster">
<title>cluster_ConfirmationModule_imports</title>
<polygon fill="none" stroke="black" points="196,-146 196,-198 318,-198 318,-146 196,-146"/>
</g>
<g id="clust22" class="cluster">
<title>cluster_DashboardModule</title>
<polygon fill="none" stroke="black" stroke-dasharray="1,5" points="387,-214 387,-282 1484,-282 1484,-214 387,-214"/>
</g>
<g id="clust23" class="cluster">
<title>cluster_DashboardModule_declarations</title>
<polygon fill="none" stroke="black" points="1318,-222 1318,-274 1476,-274 1476,-222 1318,-222"/>
</g>
<g id="clust25" class="cluster">
<title>cluster_DashboardModule_imports</title>
<polygon fill="none" stroke="black" points="395,-222 395,-274 1310,-274 1310,-222 395,-222"/>
</g>
<g id="clust29" class="cluster">
<title>cluster_GameModule</title>
<polygon fill="none" stroke="black" stroke-dasharray="1,5" points="1492,-214 1492,-282 2374,-282 2374,-214 1492,-214"/>
</g>
<g id="clust30" class="cluster">
<title>cluster_GameModule_declarations</title>
<polygon fill="none" stroke="black" points="1865,-222 1865,-274 2216,-274 2216,-222 1865,-222"/>
</g>
<g id="clust33" class="cluster">
<title>cluster_GameModule_imports</title>
<polygon fill="none" stroke="black" points="2224,-222 2224,-274 2366,-274 2366,-222 2224,-222"/>
</g>
<g id="clust34" class="cluster">
<title>cluster_GameModule_exports</title>
<polygon fill="none" stroke="black" points="1500,-222 1500,-274 1857,-274 1857,-222 1500,-222"/>
</g>
<g id="clust37" class="cluster">
<title>cluster_GameSliderModule</title>
<polygon fill="none" stroke="black" stroke-dasharray="1,5" points="2116,-290 2116,-358 2472,-358 2472,-290 2116,-290"/>
</g>
<g id="clust38" class="cluster">
<title>cluster_GameSliderModule_declarations</title>
<polygon fill="none" stroke="black" points="2300,-298 2300,-350 2464,-350 2464,-298 2300,-298"/>
</g>
<g id="clust41" class="cluster">
<title>cluster_GameSliderModule_exports</title>
<polygon fill="none" stroke="black" points="2124,-298 2124,-350 2292,-350 2292,-298 2124,-298"/>
</g>
<g id="clust44" class="cluster">
<title>cluster_GoBackModule</title>
<polygon fill="none" stroke="black" stroke-dasharray="1,5" points="2382,-214 2382,-282 2696,-282 2696,-214 2382,-214"/>
</g>
<g id="clust45" class="cluster">
<title>cluster_GoBackModule_declarations</title>
<polygon fill="none" stroke="black" points="2544,-222 2544,-274 2688,-274 2688,-222 2544,-222"/>
</g>
<g id="clust48" class="cluster">
<title>cluster_GoBackModule_exports</title>
<polygon fill="none" stroke="black" points="2390,-222 2390,-274 2536,-274 2536,-222 2390,-222"/>
</g>
<g id="clust51" class="cluster">
<title>cluster_HumidityModule</title>
<polygon fill="none" stroke="black" stroke-dasharray="1,5" points="1993,-138 1993,-206 2161,-206 2161,-138 1993,-138"/>
</g>
<g id="clust52" class="cluster">
<title>cluster_HumidityModule_declarations</title>
<polygon fill="none" stroke="black" points="2001,-146 2001,-198 2153,-198 2153,-146 2001,-146"/>
</g>
<g id="clust58" class="cluster">
<title>cluster_ResultModule</title>
<polygon fill="none" stroke="black" stroke-dasharray="1,5" points="334,-138 334,-206 484,-206 484,-138 334,-138"/>
</g>
<g id="clust59" class="cluster">
<title>cluster_ResultModule_declarations</title>
<polygon fill="none" stroke="black" points="342,-146 342,-198 476,-198 476,-146 342,-146"/>
</g>
<g id="clust65" class="cluster">
<title>cluster_RoomFeelingsModule</title>
<polygon fill="none" stroke="black" stroke-dasharray="1,5" points="492,-138 492,-206 686,-206 686,-138 492,-138"/>
</g>
<g id="clust66" class="cluster">
<title>cluster_RoomFeelingsModule_declarations</title>
<polygon fill="none" stroke="black" points="500,-146 500,-198 678,-198 678,-146 500,-146"/>
</g>
<g id="clust72" class="cluster">
<title>cluster_StatusModule</title>
<polygon fill="none" stroke="black" stroke-dasharray="1,5" points="694,-138 694,-206 842,-206 842,-138 694,-138"/>
</g>
<g id="clust73" class="cluster">
<title>cluster_StatusModule_declarations</title>
<polygon fill="none" stroke="black" points="702,-146 702,-198 834,-198 834,-146 702,-146"/>
</g>
<g id="clust79" class="cluster">
<title>cluster_TemperatureModule</title>
<polygon fill="none" stroke="black" stroke-dasharray="1,5" points="850,-138 850,-206 1034,-206 1034,-138 850,-138"/>
</g>
<g id="clust80" class="cluster">
<title>cluster_TemperatureModule_declarations</title>
<polygon fill="none" stroke="black" points="858,-146 858,-198 1026,-198 1026,-146 858,-146"/>
</g>
<g id="clust86" class="cluster">
<title>cluster_VotingModule</title>
<polygon fill="none" stroke="black" stroke-dasharray="1,5" points="1042,-138 1042,-206 1194,-206 1194,-138 1042,-138"/>
</g>
<g id="clust87" class="cluster">
<title>cluster_VotingModule_declarations</title>
<polygon fill="none" stroke="black" points="1050,-146 1050,-198 1186,-198 1186,-146 1050,-146"/>
</g>
<g id="clust93" class="cluster">
<title>cluster_ZoneGridModule</title>
<polygon fill="none" stroke="black" stroke-dasharray="1,5" points="2704,-70 2704,-282 3006,-282 3006,-70 2704,-70"/>
</g>
<g id="clust94" class="cluster">
<title>cluster_ZoneGridModule_declarations</title>
<polygon fill="none" stroke="black" points="2716,-78 2716,-130 2994,-130 2994,-78 2716,-78"/>
</g>
<g id="clust98" class="cluster">
<title>cluster_ZoneGridModule_exports</title>
<polygon fill="none" stroke="black" points="2712,-222 2712,-274 2998,-274 2998,-222 2712,-222"/>
</g>
<g id="clust101" class="cluster">
<title>cluster_ZoneViewModule</title>
<polygon fill="none" stroke="black" stroke-dasharray="1,5" points="1202,-138 1202,-206 1985,-206 1985,-138 1202,-138"/>
</g>
<g id="clust102" class="cluster">
<title>cluster_ZoneViewModule_declarations</title>
<polygon fill="none" stroke="black" points="1821,-146 1821,-198 1977,-198 1977,-146 1821,-146"/>
</g>
<g id="clust105" class="cluster">
<title>cluster_ZoneViewModule_exports</title>
<polygon fill="none" stroke="black" points="1653,-146 1653,-198 1813,-198 1813,-146 1653,-146"/>
</g>
<g id="clust107" class="cluster">
<title>cluster_ZoneViewModule_providers</title>
<polygon fill="none" stroke="black" points="1210,-146 1210,-198 1645,-198 1645,-146 1210,-146"/>
</g>
<!-- AppComponent -->
<g id="node1" class="node">
<title>AppComponent</title>
<polygon fill="#ffffb3" stroke="black" points="1608.94,-342 1503.06,-342 1503.06,-306 1608.94,-306 1608.94,-342"/>
<text text-anchor="middle" x="1556" y="-319.8" font-family="Times,serif" font-size="14.00">AppComponent</text>
</g>
<!-- AppModule -->
<g id="node3" class="node">
<title>AppModule</title>
<polygon fill="#8dd3c7" stroke="black" points="1279.66,-407 1276.66,-411 1255.66,-411 1252.66,-407 1196.34,-407 1196.34,-371 1279.66,-371 1279.66,-407"/>
<text text-anchor="middle" x="1238" y="-384.8" font-family="Times,serif" font-size="14.00">AppModule</text>
</g>
<!-- AppComponent&#45;&gt;AppModule -->
<g id="edge1" class="edge">
<title>AppComponent&#45;&gt;AppModule</title>
<path fill="none" stroke="black" d="M1556,-342.28C1556,-363.32 1556,-395 1556,-395 1556,-395 1289.9,-395 1289.9,-395"/>
<polygon fill="black" stroke="black" points="1289.9,-391.5 1279.9,-395 1289.9,-398.5 1289.9,-391.5"/>
</g>
<!-- LoginComponent -->
<g id="node2" class="node">
<title>LoginComponent</title>
<polygon fill="#ffffb3" stroke="black" points="1485.28,-342 1370.72,-342 1370.72,-306 1485.28,-306 1485.28,-342"/>
<text text-anchor="middle" x="1428" y="-319.8" font-family="Times,serif" font-size="14.00">LoginComponent</text>
</g>
<!-- LoginComponent&#45;&gt;AppModule -->
<g id="edge2" class="edge">
<title>LoginComponent&#45;&gt;AppModule</title>
<path fill="none" stroke="black" d="M1428,-342.02C1428,-359.37 1428,-383 1428,-383 1428,-383 1289.7,-383 1289.7,-383"/>
<polygon fill="black" stroke="black" points="1289.7,-379.5 1279.7,-383 1289.7,-386.5 1289.7,-379.5"/>
</g>
<!-- AppComponent  -->
<g id="node7" class="node">
<title>AppComponent </title>
<polygon fill="#80b1d3" stroke="black" points="1292.44,-472 1183.56,-472 1183.56,-436 1292.44,-436 1292.44,-472"/>
<text text-anchor="middle" x="1238" y="-449.8" font-family="Times,serif" font-size="14.00">AppComponent </text>
</g>
<!-- AppModule&#45;&gt;AppComponent  -->
<g id="edge6" class="edge">
<title>AppModule&#45;&gt;AppComponent </title>
<path fill="none" stroke="black" stroke-dasharray="1,5" d="M1238,-407.11C1238,-407.11 1238,-425.99 1238,-425.99"/>
<polygon fill="black" stroke="black" points="1234.5,-425.99 1238,-435.99 1241.5,-425.99 1234.5,-425.99"/>
</g>
<!-- AppRoutingModule -->
<g id="node4" class="node">
<title>AppRoutingModule</title>
<polygon fill="#8dd3c7" stroke="black" points="1098.27,-342 1095.27,-346 1074.27,-346 1071.27,-342 969.73,-342 969.73,-306 1098.27,-306 1098.27,-342"/>
<text text-anchor="middle" x="1034" y="-319.8" font-family="Times,serif" font-size="14.00">AppRoutingModule</text>
</g>
<!-- AppRoutingModule&#45;&gt;AppModule -->
<g id="edge3" class="edge">
<title>AppRoutingModule&#45;&gt;AppModule</title>
<path fill="none" stroke="black" d="M1034,-342.02C1034,-359.37 1034,-383 1034,-383 1034,-383 1186.23,-383 1186.23,-383"/>
<polygon fill="black" stroke="black" points="1186.23,-386.5 1196.23,-383 1186.23,-379.5 1186.23,-386.5"/>
</g>
<!-- DashboardModule -->
<g id="node5" class="node">
<title>DashboardModule</title>
<polygon fill="#8dd3c7" stroke="black" points="1236.19,-342 1233.19,-346 1212.19,-346 1209.19,-342 1115.81,-342 1115.81,-306 1236.19,-306 1236.19,-342"/>
<text text-anchor="middle" x="1176" y="-319.8" font-family="Times,serif" font-size="14.00">DashboardModule</text>
</g>
<!-- DashboardModule&#45;&gt;AppModule -->
<g id="edge4" class="edge">
<title>DashboardModule&#45;&gt;AppModule</title>
<path fill="none" stroke="black" d="M1216.13,-342.11C1216.13,-342.11 1216.13,-360.99 1216.13,-360.99"/>
<polygon fill="black" stroke="black" points="1212.63,-360.99 1216.13,-370.99 1219.63,-360.99 1212.63,-360.99"/>
</g>
<!-- GameModule -->
<g id="node6" class="node">
<title>GameModule</title>
<polygon fill="#8dd3c7" stroke="black" points="1347.48,-342 1344.48,-346 1323.48,-346 1320.48,-342 1254.52,-342 1254.52,-306 1347.48,-306 1347.48,-342"/>
<text text-anchor="middle" x="1301" y="-319.8" font-family="Times,serif" font-size="14.00">GameModule</text>
</g>
<!-- GameModule&#45;&gt;AppModule -->
<g id="edge5" class="edge">
<title>GameModule&#45;&gt;AppModule</title>
<path fill="none" stroke="black" d="M1267.17,-342.11C1267.17,-342.11 1267.17,-360.99 1267.17,-360.99"/>
<polygon fill="black" stroke="black" points="1263.67,-360.99 1267.17,-370.99 1270.67,-360.99 1263.67,-360.99"/>
</g>
<!-- GameDashboardComponent  -->
<g id="node24" class="node">
<title>GameDashboardComponent </title>
<polygon fill="#fb8072" stroke="black" points="1849.4,-266 1670.6,-266 1670.6,-230 1849.4,-230 1849.4,-266"/>
<text text-anchor="middle" x="1760" y="-243.8" font-family="Times,serif" font-size="14.00">GameDashboardComponent </text>
</g>
<!-- GameModule&#45;&gt;GameDashboardComponent  -->
<g id="edge23" class="edge">
<title>GameModule&#45;&gt;GameDashboardComponent </title>
<path fill="none" stroke="black" stroke-dasharray="5,2" d="M1344.42,-305.85C1344.42,-292.26 1344.42,-276 1344.42,-276 1344.42,-276 1760,-276 1760,-276 1760,-276 1760,-275.02 1760,-275.02"/>
<polygon fill="black" stroke="black" points="1763.5,-276.21 1760,-266.21 1756.5,-276.21 1763.5,-276.21"/>
</g>
<!-- GameStartComponent  -->
<g id="node25" class="node">
<title>GameStartComponent </title>
<polygon fill="#fb8072" stroke="black" points="1652.2,-266 1507.8,-266 1507.8,-230 1652.2,-230 1652.2,-266"/>
<text text-anchor="middle" x="1580" y="-243.8" font-family="Times,serif" font-size="14.00">GameStartComponent </text>
</g>
<!-- GameModule&#45;&gt;GameStartComponent  -->
<g id="edge24" class="edge">
<title>GameModule&#45;&gt;GameStartComponent </title>
<path fill="none" stroke="black" stroke-dasharray="5,2" d="M1341.35,-305.88C1341.35,-291.22 1341.35,-273 1341.35,-273 1341.35,-273 1558.19,-273 1558.19,-273 1558.19,-273 1558.19,-272.32 1558.19,-272.32"/>
<polygon fill="black" stroke="black" points="1561.69,-276.17 1558.19,-266.17 1554.69,-276.17 1561.69,-276.17"/>
</g>
<!-- LoginService -->
<g id="node8" class="node">
<title>LoginService</title>
<ellipse fill="#fdb462" stroke="black" cx="883" cy="-324" rx="63.12" ry="18"/>
<text text-anchor="middle" x="883" y="-319.8" font-family="Times,serif" font-size="14.00">LoginService</text>
</g>
<!-- LoginService&#45;&gt;AppModule -->
<g id="edge7" class="edge">
<title>LoginService&#45;&gt;AppModule</title>
<path fill="none" stroke="black" d="M883,-342.28C883,-363.32 883,-395 883,-395 883,-395 1186.23,-395 1186.23,-395"/>
<polygon fill="black" stroke="black" points="1186.23,-398.5 1196.23,-395 1186.23,-391.5 1186.23,-398.5"/>
</g>
<!-- ConfirmationComponent -->
<g id="node9" class="node">
<title>ConfirmationComponent</title>
<polygon fill="#ffffb3" stroke="black" points="180.27,-190 23.73,-190 23.73,-154 180.27,-154 180.27,-190"/>
<text text-anchor="middle" x="102" y="-167.8" font-family="Times,serif" font-size="14.00">ConfirmationComponent</text>
</g>
<!-- ConfirmationModule -->
<g id="node10" class="node">
<title>ConfirmationModule</title>
<polygon fill="#8dd3c7" stroke="black" points="318.48,-266 315.48,-270 294.48,-270 291.48,-266 183.52,-266 183.52,-230 318.48,-230 318.48,-266"/>
<text text-anchor="middle" x="251" y="-243.8" font-family="Times,serif" font-size="14.00">ConfirmationModule</text>
</g>
<!-- ConfirmationComponent&#45;&gt;ConfirmationModule -->
<g id="edge8" class="edge">
<title>ConfirmationComponent&#45;&gt;ConfirmationModule</title>
<path fill="none" stroke="black" d="M180.34,-172C188.51,-172 193.9,-172 193.9,-172 193.9,-172 193.9,-219.99 193.9,-219.99"/>
<polygon fill="black" stroke="black" points="190.4,-219.99 193.9,-229.99 197.4,-219.99 190.4,-219.99"/>
</g>
<!-- ConfirmationModule&#45;&gt;DashboardModule -->
<g id="edge12" class="edge">
<title>ConfirmationModule&#45;&gt;DashboardModule</title>
<path fill="none" stroke="black" d="M251,-266.01C251,-282.05 251,-303 251,-303 251,-303 1122.12,-303 1122.12,-303 1122.12,-303 1122.12,-303.29 1122.12,-303.29"/>
<polygon fill="black" stroke="black" points="1118.62,-295.92 1122.12,-305.92 1125.62,-295.92 1118.62,-295.92"/>
</g>
<!-- ChangeRequestService -->
<g id="node11" class="node">
<title>ChangeRequestService</title>
<ellipse fill="#fdb462" stroke="black" cx="125" cy="-104" rx="100.7" ry="18"/>
<text text-anchor="middle" x="125" y="-99.8" font-family="Times,serif" font-size="14.00">ChangeRequestService</text>
</g>
<!-- ChangeRequestService&#45;&gt;ConfirmationComponent -->
<g id="edge9" class="edge">
<title>ChangeRequestService&#45;&gt;ConfirmationComponent</title>
<path fill="none" stroke="black" d="M102.39,-121.87C102.39,-121.87 102.39,-143.54 102.39,-143.54"/>
<polygon fill="black" stroke="black" points="98.89,-143.54 102.39,-153.54 105.89,-143.54 98.89,-143.54"/>
</g>
<!-- GoBackModule -->
<g id="node12" class="node">
<title>GoBackModule</title>
<polygon fill="#8dd3c7" stroke="black" points="309.92,-190 306.92,-194 285.92,-194 282.92,-190 204.08,-190 204.08,-154 309.92,-154 309.92,-190"/>
<text text-anchor="middle" x="257" y="-167.8" font-family="Times,serif" font-size="14.00">GoBackModule</text>
</g>
<!-- GoBackModule&#45;&gt;ConfirmationModule -->
<g id="edge10" class="edge">
<title>GoBackModule&#45;&gt;ConfirmationModule</title>
<path fill="none" stroke="black" d="M221.86,-190.01C221.86,-190.01 221.86,-219.85 221.86,-219.85"/>
<polygon fill="black" stroke="black" points="218.36,-219.85 221.86,-229.85 225.36,-219.85 218.36,-219.85"/>
</g>
<!-- HumidityModule -->
<g id="node14" class="node">
<title>HumidityModule</title>
<polygon fill="#8dd3c7" stroke="black" points="1165.72,-266 1162.72,-270 1141.72,-270 1138.72,-266 1052.28,-266 1052.28,-230 1165.72,-230 1165.72,-266"/>
<text text-anchor="middle" x="1109" y="-243.8" font-family="Times,serif" font-size="14.00">HumidityModule</text>
</g>
<!-- GoBackModule&#45;&gt;HumidityModule -->
<g id="edge30" class="edge">
<title>GoBackModule&#45;&gt;HumidityModule</title>
<path fill="none" stroke="black" d="M274.57,-190.24C274.57,-197.43 274.57,-204 274.57,-204 274.57,-204 1093.8,-204 1093.8,-204 1093.8,-204 1093.8,-219.85 1093.8,-219.85"/>
<polygon fill="black" stroke="black" points="1090.3,-219.85 1093.8,-229.85 1097.3,-219.85 1090.3,-219.85"/>
</g>
<!-- TemperatureModule -->
<g id="node18" class="node">
<title>TemperatureModule</title>
<polygon fill="#8dd3c7" stroke="black" points="647.56,-266 644.56,-270 623.56,-270 620.56,-266 516.44,-266 516.44,-230 647.56,-230 647.56,-266"/>
<text text-anchor="middle" x="582" y="-243.8" font-family="Times,serif" font-size="14.00">TemperatureModule</text>
</g>
<!-- GoBackModule&#45;&gt;TemperatureModule -->
<g id="edge35" class="edge">
<title>GoBackModule&#45;&gt;TemperatureModule</title>
<path fill="none" stroke="black" d="M257,-190.11C257,-199.9 257,-210 257,-210 257,-210 560.16,-210 560.16,-210 560.16,-210 560.16,-219.89 560.16,-219.89"/>
<polygon fill="black" stroke="black" points="556.66,-219.89 560.16,-229.89 563.66,-219.89 556.66,-219.89"/>
</g>
<!-- GoBackComponent  -->
<g id="node29" class="node">
<title>GoBackComponent </title>
<polygon fill="#fb8072" stroke="black" points="2528.21,-266 2397.79,-266 2397.79,-230 2528.21,-230 2528.21,-266"/>
<text text-anchor="middle" x="2463" y="-243.8" font-family="Times,serif" font-size="14.00">GoBackComponent </text>
</g>
<!-- GoBackModule&#45;&gt;GoBackComponent  -->
<g id="edge28" class="edge">
<title>GoBackModule&#45;&gt;GoBackComponent </title>
<path fill="none" stroke="black" stroke-dasharray="5,2" d="M292.14,-190.17C292.14,-194.05 292.14,-197 292.14,-197 292.14,-197 2463,-197 2463,-197 2463,-197 2463,-219.88 2463,-219.88"/>
<polygon fill="black" stroke="black" points="2459.5,-219.88 2463,-229.88 2466.5,-219.88 2459.5,-219.88"/>
</g>
<!-- DashboardComponent -->
<g id="node13" class="node">
<title>DashboardComponent</title>
<polygon fill="#ffffb3" stroke="black" points="1467.97,-266 1326.03,-266 1326.03,-230 1467.97,-230 1467.97,-266"/>
<text text-anchor="middle" x="1397" y="-243.8" font-family="Times,serif" font-size="14.00">DashboardComponent</text>
</g>
<!-- DashboardComponent&#45;&gt;DashboardModule -->
<g id="edge11" class="edge">
<title>DashboardComponent&#45;&gt;DashboardModule</title>
<path fill="none" stroke="black" d="M1329.08,-266.17C1329.08,-268.45 1329.08,-270 1329.08,-270 1329.08,-270 1218.62,-270 1218.62,-270 1218.62,-270 1218.62,-295.72 1218.62,-295.72"/>
<polygon fill="black" stroke="black" points="1215.12,-295.72 1218.62,-305.72 1222.12,-295.72 1215.12,-295.72"/>
</g>
<!-- HumidityModule&#45;&gt;DashboardModule -->
<g id="edge13" class="edge">
<title>HumidityModule&#45;&gt;DashboardModule</title>
<path fill="none" stroke="black" d="M1159.4,-266.01C1159.4,-266.01 1159.4,-295.85 1159.4,-295.85"/>
<polygon fill="black" stroke="black" points="1155.9,-295.85 1159.4,-305.85 1162.9,-295.85 1155.9,-295.85"/>
</g>
<!-- ResultModule -->
<g id="node15" class="node">
<title>ResultModule</title>
<polygon fill="#8dd3c7" stroke="black" points="498.83,-266 495.83,-270 474.83,-270 471.83,-266 403.17,-266 403.17,-230 498.83,-230 498.83,-266"/>
<text text-anchor="middle" x="451" y="-243.8" font-family="Times,serif" font-size="14.00">ResultModule</text>
</g>
<!-- ResultModule&#45;&gt;DashboardModule -->
<g id="edge14" class="edge">
<title>ResultModule&#45;&gt;DashboardModule</title>
<path fill="none" stroke="black" d="M451,-266.19C451,-281.18 451,-300 451,-300 451,-300 1128.33,-300 1128.33,-300 1128.33,-300 1128.33,-300.58 1128.33,-300.58"/>
<polygon fill="black" stroke="black" points="1124.83,-295.81 1128.33,-305.81 1131.83,-295.81 1124.83,-295.81"/>
</g>
<!-- RoomFeelingsModule -->
<g id="node16" class="node">
<title>RoomFeelingsModule</title>
<polygon fill="#8dd3c7" stroke="black" points="806.71,-266 803.71,-270 782.71,-270 779.71,-266 665.29,-266 665.29,-230 806.71,-230 806.71,-266"/>
<text text-anchor="middle" x="736" y="-243.8" font-family="Times,serif" font-size="14.00">RoomFeelingsModule</text>
</g>
<!-- RoomFeelingsModule&#45;&gt;DashboardModule -->
<g id="edge15" class="edge">
<title>RoomFeelingsModule&#45;&gt;DashboardModule</title>
<path fill="none" stroke="black" d="M736,-266.18C736,-279.04 736,-294 736,-294 736,-294 1140.76,-294 1140.76,-294 1140.76,-294 1140.76,-295.86 1140.76,-295.86"/>
<polygon fill="black" stroke="black" points="1137.26,-295.86 1140.76,-305.86 1144.26,-295.86 1137.26,-295.86"/>
</g>
<!-- StatusModule -->
<g id="node17" class="node">
<title>StatusModule</title>
<polygon fill="#8dd3c7" stroke="black" points="917.77,-266 914.77,-270 893.77,-270 890.77,-266 824.23,-266 824.23,-230 917.77,-230 917.77,-266"/>
<text text-anchor="middle" x="871" y="-243.8" font-family="Times,serif" font-size="14.00">StatusModule</text>
</g>
<!-- StatusModule&#45;&gt;DashboardModule -->
<g id="edge16" class="edge">
<title>StatusModule&#45;&gt;DashboardModule</title>
<path fill="none" stroke="black" d="M871,-266.49C871,-278.14 871,-291 871,-291 871,-291 1146.97,-291 1146.97,-291 1146.97,-291 1146.97,-295.96 1146.97,-295.96"/>
<polygon fill="black" stroke="black" points="1143.47,-295.96 1146.97,-305.96 1150.47,-295.96 1143.47,-295.96"/>
</g>
<!-- TemperatureModule&#45;&gt;DashboardModule -->
<g id="edge17" class="edge">
<title>TemperatureModule&#45;&gt;DashboardModule</title>
<path fill="none" stroke="black" d="M582,-266.25C582,-280.18 582,-297 582,-297 582,-297 1134.54,-297 1134.54,-297 1134.54,-297 1134.54,-297.88 1134.54,-297.88"/>
<polygon fill="black" stroke="black" points="1131.04,-295.84 1134.54,-305.84 1138.04,-295.84 1131.04,-295.84"/>
</g>
<!-- VotingModule -->
<g id="node19" class="node">
<title>VotingModule</title>
<polygon fill="#8dd3c7" stroke="black" points="1034.44,-266 1031.44,-270 1010.44,-270 1007.44,-266 935.56,-266 935.56,-230 1034.44,-230 1034.44,-266"/>
<text text-anchor="middle" x="985" y="-243.8" font-family="Times,serif" font-size="14.00">VotingModule</text>
</g>
<!-- VotingModule&#45;&gt;DashboardModule -->
<g id="edge18" class="edge">
<title>VotingModule&#45;&gt;DashboardModule</title>
<path fill="none" stroke="black" d="M1001.92,-266.13C1001.92,-276.71 1001.92,-288 1001.92,-288 1001.92,-288 1153.18,-288 1153.18,-288 1153.18,-288 1153.18,-295.58 1153.18,-295.58"/>
<polygon fill="black" stroke="black" points="1149.68,-295.58 1153.18,-305.58 1156.68,-295.58 1149.68,-295.58"/>
</g>
<!-- ZoneViewModule -->
<g id="node20" class="node">
<title>ZoneViewModule</title>
<polygon fill="#8dd3c7" stroke="black" points="1302.14,-266 1299.14,-270 1278.14,-270 1275.14,-266 1183.86,-266 1183.86,-230 1302.14,-230 1302.14,-266"/>
<text text-anchor="middle" x="1243" y="-243.8" font-family="Times,serif" font-size="14.00">ZoneViewModule</text>
</g>
<!-- ZoneViewModule&#45;&gt;DashboardModule -->
<g id="edge19" class="edge">
<title>ZoneViewModule&#45;&gt;DashboardModule</title>
<path fill="none" stroke="black" d="M1201.15,-266.01C1201.15,-266.01 1201.15,-295.85 1201.15,-295.85"/>
<polygon fill="black" stroke="black" points="1197.65,-295.85 1201.15,-305.85 1204.65,-295.85 1197.65,-295.85"/>
</g>
<!-- ZoneViewComponent  -->
<g id="node42" class="node">
<title>ZoneViewComponent </title>
<polygon fill="#fb8072" stroke="black" points="1804.92,-190 1661.08,-190 1661.08,-154 1804.92,-154 1804.92,-190"/>
<text text-anchor="middle" x="1733" y="-167.8" font-family="Times,serif" font-size="14.00">ZoneViewComponent </text>
</g>
<!-- ZoneViewModule&#45;&gt;ZoneViewComponent  -->
<g id="edge43" class="edge">
<title>ZoneViewModule&#45;&gt;ZoneViewComponent </title>
<path fill="none" stroke="black" stroke-dasharray="5,2" d="M1241.84,-229.79C1241.84,-224.45 1241.84,-220 1241.84,-220 1241.84,-220 1665.8,-220 1665.8,-220 1665.8,-220 1665.8,-200.15 1665.8,-200.15"/>
<polygon fill="black" stroke="black" points="1669.3,-200.15 1665.8,-190.15 1662.3,-200.15 1669.3,-200.15"/>
</g>
<!-- GameDashboardComponent -->
<g id="node21" class="node">
<title>GameDashboardComponent</title>
<polygon fill="#ffffb3" stroke="black" points="2207.9,-266 2032.1,-266 2032.1,-230 2207.9,-230 2207.9,-266"/>
<text text-anchor="middle" x="2120" y="-243.8" font-family="Times,serif" font-size="14.00">GameDashboardComponent</text>
</g>
<!-- GameDashboardComponent&#45;&gt;GameModule -->
<g id="edge20" class="edge">
<title>GameDashboardComponent&#45;&gt;GameModule</title>
<path fill="none" stroke="black" d="M2082.23,-266.19C2082.23,-274.28 2082.23,-282 2082.23,-282 2082.23,-282 1335.22,-282 1335.22,-282 1335.22,-282 1335.22,-295.94 1335.22,-295.94"/>
<polygon fill="black" stroke="black" points="1331.72,-295.94 1335.22,-305.94 1338.72,-295.94 1331.72,-295.94"/>
</g>
<!-- GameStartComponent -->
<g id="node22" class="node">
<title>GameStartComponent</title>
<polygon fill="#ffffb3" stroke="black" points="2014.7,-266 1873.3,-266 1873.3,-230 2014.7,-230 2014.7,-266"/>
<text text-anchor="middle" x="1944" y="-243.8" font-family="Times,serif" font-size="14.00">GameStartComponent</text>
</g>
<!-- GameStartComponent&#45;&gt;GameModule -->
<g id="edge21" class="edge">
<title>GameStartComponent&#45;&gt;GameModule</title>
<path fill="none" stroke="black" d="M1944,-266.03C1944,-272.85 1944,-279 1944,-279 1944,-279 1332.15,-279 1332.15,-279 1332.15,-279 1332.15,-295.96 1332.15,-295.96"/>
<polygon fill="black" stroke="black" points="1328.65,-295.96 1332.15,-305.96 1335.65,-295.96 1328.65,-295.96"/>
</g>
<!-- GameSliderModule -->
<g id="node23" class="node">
<title>GameSliderModule</title>
<polygon fill="#8dd3c7" stroke="black" points="2358.42,-266 2355.42,-270 2334.42,-270 2331.42,-266 2231.58,-266 2231.58,-230 2358.42,-230 2358.42,-266"/>
<text text-anchor="middle" x="2295" y="-243.8" font-family="Times,serif" font-size="14.00">GameSliderModule</text>
</g>
<!-- GameSliderModule&#45;&gt;GameModule -->
<g id="edge22" class="edge">
<title>GameSliderModule&#45;&gt;GameModule</title>
<path fill="none" stroke="black" d="M2249.14,-266.07C2249.14,-275.46 2249.14,-285 2249.14,-285 2249.14,-285 1338.28,-285 1338.28,-285 1338.28,-285 1338.28,-295.87 1338.28,-295.87"/>
<polygon fill="black" stroke="black" points="1334.78,-295.87 1338.28,-305.87 1341.78,-295.87 1334.78,-295.87"/>
</g>
<!-- GameSliderComponent  -->
<g id="node27" class="node">
<title>GameSliderComponent </title>
<polygon fill="#fb8072" stroke="black" points="2283.7,-342 2132.3,-342 2132.3,-306 2283.7,-306 2283.7,-342"/>
<text text-anchor="middle" x="2208" y="-319.8" font-family="Times,serif" font-size="14.00">GameSliderComponent </text>
</g>
<!-- GameSliderModule&#45;&gt;GameSliderComponent  -->
<g id="edge26" class="edge">
<title>GameSliderModule&#45;&gt;GameSliderComponent </title>
<path fill="none" stroke="black" stroke-dasharray="5,2" d="M2266.5,-266.01C2266.5,-266.01 2266.5,-295.85 2266.5,-295.85"/>
<polygon fill="black" stroke="black" points="2263,-295.85 2266.5,-305.85 2270,-295.85 2263,-295.85"/>
</g>
<!-- GameSliderComponent -->
<g id="node26" class="node">
<title>GameSliderComponent</title>
<polygon fill="#ffffb3" stroke="black" points="2456.2,-342 2307.8,-342 2307.8,-306 2456.2,-306 2456.2,-342"/>
<text text-anchor="middle" x="2382" y="-319.8" font-family="Times,serif" font-size="14.00">GameSliderComponent</text>
</g>
<!-- GameSliderComponent&#45;&gt;GameSliderModule -->
<g id="edge25" class="edge">
<title>GameSliderComponent&#45;&gt;GameSliderModule</title>
<path fill="none" stroke="black" d="M2333.05,-305.99C2333.05,-305.99 2333.05,-276.15 2333.05,-276.15"/>
<polygon fill="black" stroke="black" points="2336.55,-276.15 2333.05,-266.15 2329.55,-276.15 2336.55,-276.15"/>
</g>
<!-- GoBackComponent -->
<g id="node28" class="node">
<title>GoBackComponent</title>
<polygon fill="#ffffb3" stroke="black" points="2679.7,-266 2552.3,-266 2552.3,-230 2679.7,-230 2679.7,-266"/>
<text text-anchor="middle" x="2616" y="-243.8" font-family="Times,serif" font-size="14.00">GoBackComponent</text>
</g>
<!-- GoBackComponent&#45;&gt;GoBackModule -->
<g id="edge27" class="edge">
<title>GoBackComponent&#45;&gt;GoBackModule</title>
<path fill="none" stroke="black" d="M2616,-229.72C2616,-214.05 2616,-194 2616,-194 2616,-194 239.43,-194 239.43,-194 239.43,-194 239.43,-193.62 239.43,-193.62"/>
<polygon fill="black" stroke="black" points="242.93,-200.17 239.43,-190.17 235.93,-200.17 242.93,-200.17"/>
</g>
<!-- HumidityComponent -->
<g id="node30" class="node">
<title>HumidityComponent</title>
<polygon fill="#ffffb3" stroke="black" points="2144.5,-190 2009.5,-190 2009.5,-154 2144.5,-154 2144.5,-190"/>
<text text-anchor="middle" x="2077" y="-167.8" font-family="Times,serif" font-size="14.00">HumidityComponent</text>
</g>
<!-- HumidityComponent&#45;&gt;HumidityModule -->
<g id="edge29" class="edge">
<title>HumidityComponent&#45;&gt;HumidityModule</title>
<path fill="none" stroke="black" d="M2023.45,-190.21C2023.45,-195.55 2023.45,-200 2023.45,-200 2023.45,-200 1129.7,-200 1129.7,-200 1129.7,-200 1129.7,-219.85 1129.7,-219.85"/>
<polygon fill="black" stroke="black" points="1126.2,-219.85 1129.7,-229.85 1133.2,-219.85 1126.2,-219.85"/>
</g>
<!-- ResultComponent -->
<g id="node31" class="node">
<title>ResultComponent</title>
<polygon fill="#ffffb3" stroke="black" points="467.61,-190 350.39,-190 350.39,-154 467.61,-154 467.61,-190"/>
<text text-anchor="middle" x="409" y="-167.8" font-family="Times,serif" font-size="14.00">ResultComponent</text>
</g>
<!-- ResultComponent&#45;&gt;ResultModule -->
<g id="edge31" class="edge">
<title>ResultComponent&#45;&gt;ResultModule</title>
<path fill="none" stroke="black" d="M435.45,-190.01C435.45,-190.01 435.45,-219.85 435.45,-219.85"/>
<polygon fill="black" stroke="black" points="431.95,-219.85 435.45,-229.85 438.95,-219.85 431.95,-219.85"/>
</g>
<!-- RoomFeelingsComponent -->
<g id="node32" class="node">
<title>RoomFeelingsComponent</title>
<polygon fill="#ffffb3" stroke="black" points="670.5,-190 507.5,-190 507.5,-154 670.5,-154 670.5,-190"/>
<text text-anchor="middle" x="589" y="-167.8" font-family="Times,serif" font-size="14.00">RoomFeelingsComponent</text>
</g>
<!-- RoomFeelingsComponent&#45;&gt;RoomFeelingsModule -->
<g id="edge32" class="edge">
<title>RoomFeelingsComponent&#45;&gt;RoomFeelingsModule</title>
<path fill="none" stroke="black" d="M656.46,-190.01C656.46,-212.49 656.46,-248 656.46,-248 656.46,-248 657.34,-248 657.34,-248"/>
<polygon fill="black" stroke="black" points="655.28,-251.5 665.28,-248 655.28,-244.5 655.28,-251.5"/>
</g>
<!-- StatusComponent -->
<g id="node33" class="node">
<title>StatusComponent</title>
<polygon fill="#ffffb3" stroke="black" points="825.56,-190 710.44,-190 710.44,-154 825.56,-154 825.56,-190"/>
<text text-anchor="middle" x="768" y="-167.8" font-family="Times,serif" font-size="14.00">StatusComponent</text>
</g>
<!-- StatusComponent&#45;&gt;StatusModule -->
<g id="edge33" class="edge">
<title>StatusComponent&#45;&gt;StatusModule</title>
<path fill="none" stroke="black" d="M813.27,-190.01C813.27,-212.49 813.27,-248 813.27,-248 813.27,-248 814.36,-248 814.36,-248"/>
<polygon fill="black" stroke="black" points="814.13,-251.5 824.13,-248 814.13,-244.5 814.13,-251.5"/>
</g>
<!-- TemperatureComponent -->
<g id="node34" class="node">
<title>TemperatureComponent</title>
<polygon fill="#ffffb3" stroke="black" points="1018.35,-190 865.65,-190 865.65,-154 1018.35,-154 1018.35,-190"/>
<text text-anchor="middle" x="942" y="-167.8" font-family="Times,serif" font-size="14.00">TemperatureComponent</text>
</g>
<!-- TemperatureComponent&#45;&gt;TemperatureModule -->
<g id="edge34" class="edge">
<title>TemperatureComponent&#45;&gt;TemperatureModule</title>
<path fill="none" stroke="black" d="M891.73,-190.32C891.73,-198.79 891.73,-207 891.73,-207 891.73,-207 603.84,-207 603.84,-207 603.84,-207 603.84,-219.9 603.84,-219.9"/>
<polygon fill="black" stroke="black" points="600.34,-219.9 603.84,-229.9 607.34,-219.9 600.34,-219.9"/>
</g>
<!-- VotingComponent -->
<g id="node35" class="node">
<title>VotingComponent</title>
<polygon fill="#ffffb3" stroke="black" points="1178.22,-190 1057.78,-190 1057.78,-154 1178.22,-154 1178.22,-190"/>
<text text-anchor="middle" x="1118" y="-167.8" font-family="Times,serif" font-size="14.00">VotingComponent</text>
</g>
<!-- VotingComponent&#45;&gt;VotingModule -->
<g id="edge36" class="edge">
<title>VotingComponent&#45;&gt;VotingModule</title>
<path fill="none" stroke="black" d="M1057.87,-172C1040.59,-172 1026.32,-172 1026.32,-172 1026.32,-172 1026.32,-219.99 1026.32,-219.99"/>
<polygon fill="black" stroke="black" points="1022.82,-219.99 1026.32,-229.99 1029.82,-219.99 1022.82,-219.99"/>
</g>
<!-- VentComponent -->
<g id="node36" class="node">
<title>VentComponent</title>
<polygon fill="#ffffb3" stroke="black" points="2832.05,-122 2723.95,-122 2723.95,-86 2832.05,-86 2832.05,-122"/>
<text text-anchor="middle" x="2778" y="-99.8" font-family="Times,serif" font-size="14.00">VentComponent</text>
</g>
<!-- ZoneGridModule -->
<g id="node38" class="node">
<title>ZoneGridModule</title>
<polygon fill="#8dd3c7" stroke="black" points="2846.97,-190 2843.97,-194 2822.97,-194 2819.97,-190 2733.03,-190 2733.03,-154 2846.97,-154 2846.97,-190"/>
<text text-anchor="middle" x="2790" y="-167.8" font-family="Times,serif" font-size="14.00">ZoneGridModule</text>
</g>
<!-- VentComponent&#45;&gt;ZoneGridModule -->
<g id="edge37" class="edge">
<title>VentComponent&#45;&gt;ZoneGridModule</title>
<path fill="none" stroke="black" d="M2782.64,-122.22C2782.64,-122.22 2782.64,-143.73 2782.64,-143.73"/>
<polygon fill="black" stroke="black" points="2779.14,-143.73 2782.64,-153.73 2786.14,-143.73 2779.14,-143.73"/>
</g>
<!-- ZoneGridComponent -->
<g id="node37" class="node">
<title>ZoneGridComponent</title>
<polygon fill="#ffffb3" stroke="black" points="2985.76,-122 2850.24,-122 2850.24,-86 2985.76,-86 2985.76,-122"/>
<text text-anchor="middle" x="2918" y="-99.8" font-family="Times,serif" font-size="14.00">ZoneGridComponent</text>
</g>
<!-- ZoneGridComponent&#45;&gt;ZoneGridModule -->
<g id="edge38" class="edge">
<title>ZoneGridComponent&#45;&gt;ZoneGridModule</title>
<path fill="none" stroke="black" d="M2854.88,-122.27C2854.88,-140.56 2854.88,-166 2854.88,-166 2854.88,-166 2854.13,-166 2854.13,-166"/>
<polygon fill="black" stroke="black" points="2857.43,-162.5 2847.43,-166 2857.43,-169.5 2857.43,-162.5"/>
</g>
<!-- ZoneGridModule&#45;&gt;ZoneViewModule -->
<g id="edge42" class="edge">
<title>ZoneGridModule&#45;&gt;ZoneViewModule</title>
<path fill="none" stroke="black" d="M2771,-190.01C2771,-206.05 2771,-227 2771,-227 2771,-227 1290.22,-227 1290.22,-227 1290.22,-227 1290.22,-227.29 1290.22,-227.29"/>
<polygon fill="black" stroke="black" points="1286.72,-219.92 1290.22,-229.92 1293.72,-219.92 1286.72,-219.92"/>
</g>
<!-- VentComponent  -->
<g id="node39" class="node">
<title>VentComponent </title>
<polygon fill="#fb8072" stroke="black" points="2990.04,-266 2877.96,-266 2877.96,-230 2990.04,-230 2990.04,-266"/>
<text text-anchor="middle" x="2934" y="-243.8" font-family="Times,serif" font-size="14.00">VentComponent </text>
</g>
<!-- ZoneGridModule&#45;&gt;VentComponent  -->
<g id="edge39" class="edge">
<title>ZoneGridModule&#45;&gt;VentComponent </title>
<path fill="none" stroke="black" stroke-dasharray="5,2" d="M2847.32,-178C2886.71,-178 2931.93,-178 2931.93,-178 2931.93,-178 2931.93,-219.97 2931.93,-219.97"/>
<polygon fill="black" stroke="black" points="2928.43,-219.97 2931.93,-229.97 2935.43,-219.97 2928.43,-219.97"/>
</g>
<!-- ZoneGridComponent  -->
<g id="node40" class="node">
<title>ZoneGridComponent </title>
<polygon fill="#fb8072" stroke="black" points="2859.76,-266 2720.24,-266 2720.24,-230 2859.76,-230 2859.76,-266"/>
<text text-anchor="middle" x="2790" y="-243.8" font-family="Times,serif" font-size="14.00">ZoneGridComponent </text>
</g>
<!-- ZoneGridModule&#45;&gt;ZoneGridComponent  -->
<g id="edge40" class="edge">
<title>ZoneGridModule&#45;&gt;ZoneGridComponent </title>
<path fill="none" stroke="black" stroke-dasharray="5,2" d="M2809,-190.01C2809,-190.01 2809,-219.85 2809,-219.85"/>
<polygon fill="black" stroke="black" points="2805.5,-219.85 2809,-229.85 2812.5,-219.85 2805.5,-219.85"/>
</g>
<!-- ZoneViewComponent -->
<g id="node41" class="node">
<title>ZoneViewComponent</title>
<polygon fill="#ffffb3" stroke="black" points="1969.42,-190 1828.58,-190 1828.58,-154 1969.42,-154 1969.42,-190"/>
<text text-anchor="middle" x="1899" y="-167.8" font-family="Times,serif" font-size="14.00">ZoneViewComponent</text>
</g>
<!-- ZoneViewComponent&#45;&gt;ZoneViewModule -->
<g id="edge41" class="edge">
<title>ZoneViewComponent&#45;&gt;ZoneViewModule</title>
<path fill="none" stroke="black" d="M1839.12,-190.19C1839.12,-205.18 1839.12,-224 1839.12,-224 1839.12,-224 1278.12,-224 1278.12,-224 1278.12,-224 1278.12,-224.58 1278.12,-224.58"/>
<polygon fill="black" stroke="black" points="1274.63,-219.81 1278.12,-229.81 1281.63,-219.81 1274.63,-219.81"/>
</g>
<!-- RoomsService -->
<g id="node43" class="node">
<title>RoomsService</title>
<ellipse fill="#fdb462" stroke="black" cx="1285" cy="-172" rx="67.21" ry="18"/>
<text text-anchor="middle" x="1285" y="-167.8" font-family="Times,serif" font-size="14.00">RoomsService</text>
</g>
<!-- RoomsService&#45;&gt;ZoneViewModule -->
<g id="edge44" class="edge">
<title>RoomsService&#45;&gt;ZoneViewModule</title>
<path fill="none" stroke="black" d="M1229.74,-182.57C1229.74,-182.57 1229.74,-219.93 1229.74,-219.93"/>
<polygon fill="black" stroke="black" points="1226.24,-219.93 1229.74,-229.93 1233.24,-219.93 1226.24,-219.93"/>
</g>
<!-- UsersService -->
<g id="node44" class="node">
<title>UsersService</title>
<ellipse fill="#fdb462" stroke="black" cx="1575" cy="-172" rx="61.95" ry="18"/>
<text text-anchor="middle" x="1575" y="-167.8" font-family="Times,serif" font-size="14.00">UsersService</text>
</g>
<!-- UsersService&#45;&gt;ZoneViewModule -->
<g id="edge45" class="edge">
<title>UsersService&#45;&gt;ZoneViewModule</title>
<path fill="none" stroke="black" d="M1575,-190.04C1575,-202.56 1575,-217 1575,-217 1575,-217 1266.03,-217 1266.03,-217 1266.03,-217 1266.03,-219.97 1266.03,-219.97"/>
<polygon fill="black" stroke="black" points="1262.53,-219.97 1266.03,-229.97 1269.53,-219.97 1262.53,-219.97"/>
</g>
<!-- VentsService -->
<g id="node45" class="node">
<title>VentsService</title>
<ellipse fill="#fdb462" stroke="black" cx="1433" cy="-172" rx="62.54" ry="18"/>
<text text-anchor="middle" x="1433" y="-167.8" font-family="Times,serif" font-size="14.00">VentsService</text>
</g>
<!-- VentsService&#45;&gt;ZoneViewModule -->
<g id="edge46" class="edge">
<title>VentsService&#45;&gt;ZoneViewModule</title>
<path fill="none" stroke="black" d="M1419.23,-189.57C1419.23,-201.08 1419.23,-214 1419.23,-214 1419.23,-214 1253.93,-214 1253.93,-214 1253.93,-214 1253.93,-219.81 1253.93,-219.81"/>
<polygon fill="black" stroke="black" points="1250.43,-219.81 1253.93,-229.81 1257.43,-219.81 1250.43,-219.81"/>
</g>
</g>
</svg>
